<?xml version="1.0" encoding="utf-8"?>
<!-- Generator: Adobe Illustrator 16.0.0, SVG Export Plug-In . SVG Version: 6.00 Build 0)  -->
<!DOCTYPE svg PUBLIC "-//W3C//DTD SVG 1.1//EN" "http://www.w3.org/Graphics/SVG/1.1/DTD/svg11.dtd">
<svg version="1.1" id="Layer_1" xmlns="http://www.w3.org/2000/svg" xmlns:xlink="http://www.w3.org/1999/xlink" x="0px" y="0px"
	 width="400px" height="200px" viewBox="0 0 400 200" enable-background="new 0 0 400 200" xml:space="preserve">
<rect x="148.5" y="21.5" fill="#FFFFFF" stroke="#000000" stroke-miterlimit="10" width="104" height="34"/>
<rect x="85.5" y="96.5" fill="#FFFFFF" stroke="#000000" stroke-miterlimit="10" width="127" height="51"/>
<rect x="265.5" y="68.5" fill="#FFFFFF" stroke="#000000" stroke-miterlimit="10" width="71" height="32"/>
<text transform="matrix(1 0 0 1 166.5 42)" font-family="'MyriadPro-Regular'" font-size="12">DOCUMENT</text>
<line stroke="#000000" stroke-width="4" stroke-miterlimit="10" x1="200" y1="56" x2="200" y2="80"/>
<line fill="none" stroke="#000000" stroke-width="4" stroke-miterlimit="10" x1="202" y1="80" x2="146" y2="80"/>
<line fill="none" stroke="#000000" stroke-width="4" stroke-miterlimit="10" x1="148" y1="80" x2="148" y2="97"/>
<text transform="matrix(1 0 0 1 116 114)"><tspan x="0" y="0" font-family="'MyriadPro-Regular'" font-size="12">Elements </tspan><tspan x="0" y="14.4" font-family="'MyriadPro-Regular'" font-size="12">(Objects)</tspan></text>
<text transform="matrix(1 0 0 1 108.5 142)" fill="#666666" font-family="'MyriadPro-Regular'" font-size="7">This is what the user sees</text>
<text transform="matrix(1 0 0 1 278.5 88)" font-family="'MyriadPro-Regular'" font-size="11">JavaScript</text>
<line fill="none" stroke="#000000" stroke-miterlimit="10" x1="293" y1="103.5" x2="217.5" y2="122"/>
<text transform="matrix(1 -0.0086 0.0086 1 238.7959 122.5957)"><tspan x="0" y="0" font-family="'MyriadPro-Regular'" font-size="6">JavaScript can </tspan><tspan x="-2.015" y="7.2" font-family="'MyriadPro-Regular'" font-size="6">manipulate the  </tspan><tspan x="0.543" y="14.4" font-family="'MyriadPro-Regular'" font-size="6">objects inside </tspan><tspan x="0.948" y="21.6" font-family="'MyriadPro-Regular'" font-size="6">the Docutemt</tspan></text>
</svg>
